<svg width="104" height="16" viewBox="0 0 104 16" fill="none" xmlns="http://www.w3.org/2000/svg">
<path d="M0.761364 15.5V0.954545H5.67614C6.81724 0.954545 7.75 1.16051 8.47443 1.57244C9.2036 1.97964 9.74337 2.53125 10.0938 3.22727C10.4441 3.9233 10.6193 4.69981 10.6193 5.55682C10.6193 6.41383 10.4441 7.19271 10.0938 7.89347C9.74811 8.59422 9.21307 9.15294 8.48864 9.5696C7.7642 9.98153 6.83617 10.1875 5.70455 10.1875H2.18182V8.625H5.64773C6.42898 8.625 7.05634 8.49006 7.52983 8.22017C8.00331 7.95028 8.34659 7.5857 8.55966 7.12642C8.77746 6.66241 8.88636 6.1392 8.88636 5.55682C8.88636 4.97443 8.77746 4.4536 8.55966 3.99432C8.34659 3.53504 8.00095 3.17519 7.52273 2.91477C7.04451 2.64962 6.41004 2.51705 5.61932 2.51705H2.52273V15.5H0.761364ZM13.2294 15.5V4.59091H14.8487V6.23864H14.9624C15.1612 5.69886 15.5211 5.26089 16.0419 4.92472C16.5627 4.58854 17.1499 4.42045 17.8033 4.42045C17.9264 4.42045 18.0803 4.42282 18.2649 4.42756C18.4496 4.43229 18.5893 4.43939 18.6839 4.44886V6.15341C18.6271 6.1392 18.4969 6.1179 18.2933 6.08949C18.0945 6.05634 17.8838 6.03977 17.6612 6.03977C17.1309 6.03977 16.6574 6.15104 16.2408 6.37358C15.8288 6.59138 15.5021 6.89441 15.2607 7.28267C15.0239 7.66619 14.9055 8.10417 14.9055 8.59659V15.5H13.2294ZM24.7706 15.7273C23.7857 15.7273 22.9216 15.4929 22.1783 15.0241C21.4396 14.5554 20.862 13.8996 20.4453 13.0568C20.0334 12.214 19.8274 11.2292 19.8274 10.1023C19.8274 8.96591 20.0334 7.97396 20.4453 7.12642C20.862 6.27888 21.4396 5.62074 22.1783 5.15199C22.9216 4.68324 23.7857 4.44886 24.7706 4.44886C25.7554 4.44886 26.6172 4.68324 27.3558 5.15199C28.0992 5.62074 28.6768 6.27888 29.0888 7.12642C29.5054 7.97396 29.7138 8.96591 29.7138 10.1023C29.7138 11.2292 29.5054 12.214 29.0888 13.0568C28.6768 13.8996 28.0992 14.5554 27.3558 15.0241C26.6172 15.4929 25.7554 15.7273 24.7706 15.7273ZM24.7706 14.2216C25.5187 14.2216 26.1342 14.0298 26.6172 13.6463C27.1001 13.2628 27.4576 12.7585 27.6896 12.1335C27.9216 11.5085 28.0376 10.8314 28.0376 10.1023C28.0376 9.37311 27.9216 8.69366 27.6896 8.06392C27.4576 7.43419 27.1001 6.92519 26.6172 6.53693C26.1342 6.14867 25.5187 5.95455 24.7706 5.95455C24.0225 5.95455 23.407 6.14867 22.924 6.53693C22.4411 6.92519 22.0836 7.43419 21.8516 8.06392C21.6196 8.69366 21.5036 9.37311 21.5036 10.1023C21.5036 10.8314 21.6196 11.5085 21.8516 12.1335C22.0836 12.7585 22.4411 13.2628 22.924 13.6463C23.407 14.0298 24.0225 14.2216 24.7706 14.2216ZM37.1303 4.59091V6.01136H31.2496V4.59091H37.1303ZM33.011 15.5V3.08523C33.011 2.46023 33.1578 1.93939 33.4513 1.52273C33.7449 1.10606 34.1261 0.79356 34.5948 0.585226C35.0636 0.376893 35.5584 0.272726 36.0792 0.272726C36.4911 0.272726 36.8273 0.30587 37.0877 0.372159C37.3481 0.438446 37.5423 0.499999 37.6701 0.556818L37.1871 2.00568C37.1019 1.97727 36.9835 1.94176 36.832 1.89915C36.6853 1.85653 36.4911 1.83523 36.2496 1.83523C35.6957 1.83523 35.2956 1.9749 35.0494 2.25426C34.8079 2.53362 34.6871 2.94318 34.6871 3.48295V15.5H33.011ZM39.4794 15.5V4.59091H41.1555V15.5H39.4794ZM40.3317 2.77273C40.005 2.77273 39.7232 2.66146 39.4865 2.43892C39.2545 2.21638 39.1385 1.94886 39.1385 1.63636C39.1385 1.32386 39.2545 1.05634 39.4865 0.833806C39.7232 0.611269 40.005 0.5 40.3317 0.5C40.6584 0.5 40.9377 0.611269 41.1697 0.833806C41.4065 1.05634 41.5249 1.32386 41.5249 1.63636C41.5249 1.94886 41.4065 2.21638 41.1697 2.43892C40.9377 2.66146 40.6584 2.77273 40.3317 2.77273ZM48.9698 4.59091V6.01136H43.3164V4.59091H48.9698ZM44.9641 1.97727H46.6403V12.375C46.6403 12.8485 46.7089 13.2036 46.8462 13.4403C46.9883 13.6723 47.1682 13.8286 47.386 13.9091C47.6085 13.9848 47.8429 14.0227 48.0891 14.0227C48.2738 14.0227 48.4253 14.0133 48.5437 13.9943C48.6621 13.9706 48.7567 13.9517 48.8278 13.9375L49.1687 15.4432C49.055 15.4858 48.8964 15.5284 48.6928 15.571C48.4892 15.6184 48.2312 15.642 47.9187 15.642C47.4452 15.642 46.9812 15.5402 46.5266 15.3366C46.0768 15.133 45.7028 14.8229 45.4045 14.4062C45.1109 13.9896 44.9641 13.464 44.9641 12.8295V1.97727ZM51.2212 15.5V0.954545H56.9599C58.0631 0.954545 59.003 1.16525 59.7795 1.58665C60.556 2.00331 61.1478 2.58333 61.555 3.3267C61.967 4.06534 62.1729 4.91761 62.1729 5.88352C62.1729 6.84943 61.9646 7.7017 61.5479 8.44034C61.1313 9.17898 60.5276 9.75426 59.7369 10.1662C58.9509 10.5781 57.9992 10.7841 56.8817 10.7841H53.2241V8.3196H56.3846C56.9764 8.3196 57.4641 8.2178 57.8477 8.0142C58.2359 7.80587 58.5247 7.51941 58.7141 7.15483C58.9083 6.78551 59.0053 6.36174 59.0053 5.88352C59.0053 5.40057 58.9083 4.97917 58.7141 4.61932C58.5247 4.25473 58.2359 3.97301 57.8477 3.77415C57.4594 3.57055 56.967 3.46875 56.3704 3.46875H54.2965V15.5H51.2212ZM71.1094 10.8551V4.59091H74.1349V15.5H71.2301V13.5185H71.1165C70.8703 14.1577 70.4607 14.6714 69.8878 15.0597C69.3196 15.4479 68.6259 15.642 67.8068 15.642C67.0777 15.642 66.4361 15.4763 65.8821 15.1449C65.3281 14.8134 64.8949 14.3423 64.5824 13.7315C64.2746 13.1207 64.1184 12.3892 64.1136 11.5369V4.59091H67.1392V10.9972C67.1439 11.6411 67.3168 12.1501 67.6577 12.5241C67.9986 12.8982 68.4555 13.0852 69.0284 13.0852C69.393 13.0852 69.7339 13.0024 70.0511 12.8366C70.3684 12.6662 70.6241 12.4152 70.8182 12.0838C71.017 11.7524 71.1141 11.3428 71.1094 10.8551ZM79.5806 0.954545V15.5H76.555V0.954545H79.5806ZM91.081 7.7017L88.3111 7.87216C88.2637 7.63542 88.1619 7.42235 88.0057 7.23295C87.8494 7.03883 87.6435 6.88494 87.3878 6.77131C87.1368 6.65294 86.8362 6.59375 86.4858 6.59375C86.017 6.59375 85.6217 6.69318 85.2997 6.89205C84.9777 7.08617 84.8168 7.34659 84.8168 7.6733C84.8168 7.93371 84.9209 8.15388 85.1293 8.33381C85.3376 8.51373 85.6951 8.65814 86.2017 8.76705L88.1761 9.16477C89.2367 9.38258 90.0275 9.73295 90.5483 10.2159C91.0691 10.6989 91.3295 11.3333 91.3295 12.1193C91.3295 12.8343 91.1188 13.4616 90.6974 14.0014C90.2808 14.5412 89.7079 14.9626 88.9787 15.2656C88.2543 15.5639 87.4186 15.7131 86.4716 15.7131C85.0275 15.7131 83.8769 15.4124 83.0199 14.8111C82.1676 14.205 81.6681 13.3812 81.5213 12.3395L84.4972 12.1832C84.5871 12.6236 84.8049 12.9598 85.1506 13.1918C85.4962 13.419 85.9389 13.5327 86.4787 13.5327C87.009 13.5327 87.4351 13.4309 87.7571 13.2273C88.0838 13.0189 88.2495 12.7514 88.2543 12.4247C88.2495 12.1501 88.1335 11.9252 87.9062 11.75C87.679 11.5701 87.3286 11.4328 86.8551 11.3381L84.9659 10.9616C83.9006 10.7486 83.1075 10.3793 82.5866 9.85369C82.0705 9.32812 81.8125 8.65814 81.8125 7.84375C81.8125 7.14299 82.0019 6.5393 82.3807 6.03267C82.7642 5.52604 83.3016 5.13542 83.9929 4.8608C84.6889 4.58617 85.5033 4.44886 86.4361 4.44886C87.8139 4.44886 88.8982 4.74006 89.6889 5.32244C90.4844 5.90483 90.9484 6.69792 91.081 7.7017ZM98.2063 15.7131C97.0842 15.7131 96.1183 15.4858 95.3086 15.0312C94.5037 14.572 93.8834 13.9233 93.4478 13.0852C93.0122 12.2424 92.7944 11.2457 92.7944 10.0952C92.7944 8.97301 93.0122 7.98816 93.4478 7.14062C93.8834 6.29309 94.4966 5.63258 95.2873 5.15909C96.0827 4.68561 97.0155 4.44886 98.0856 4.44886C98.8053 4.44886 99.4753 4.56487 100.096 4.79688C100.721 5.02415 101.265 5.36742 101.729 5.8267C102.198 6.28598 102.562 6.86364 102.823 7.55966C103.083 8.25095 103.213 9.06061 103.213 9.98864V10.8196H94.0018V8.9446H100.365C100.365 8.509 100.271 8.12311 100.081 7.78693C99.8919 7.45076 99.6291 7.18797 99.293 6.99858C98.9615 6.80445 98.5756 6.70739 98.1353 6.70739C97.676 6.70739 97.2688 6.81392 96.9137 7.02699C96.5633 7.23532 96.2887 7.51705 96.0898 7.87216C95.891 8.22254 95.7892 8.61316 95.7844 9.04403V10.8267C95.7844 11.3665 95.8839 11.8329 96.0827 12.2259C96.2863 12.6188 96.5728 12.9219 96.9421 13.1349C97.3114 13.348 97.7494 13.4545 98.256 13.4545C98.5922 13.4545 98.9 13.4072 99.1793 13.3125C99.4587 13.2178 99.6978 13.0758 99.8967 12.8864C100.096 12.697 100.247 12.465 100.351 12.1903L103.15 12.375C103.007 13.0473 102.716 13.6345 102.276 14.1364C101.84 14.6335 101.277 15.0218 100.586 15.3011C99.899 15.5758 99.1059 15.7131 98.2063 15.7131Z" fill="white"/>
</svg>
